{
  "accessors": [
    {
      "bufferView": 2,
      "componentType": 5126,
      "count": 65532,
      "max": [
        0.10095594823360443,
        0.4178434908390045,
        0.09796440601348877
      ],
      "min": [
        -0.17267370223999023,
        -0.00012496431008912623,
        -0.01864521950483322
      ],
      "type": "VEC3"
    },
    {
      "bufferView": 2,
      "byteOffset": 786384,
      "componentType": 5126,
      "count": 65532,
      "max": [
        0.999999463558197,
        0.9999898076057434,
        1.0
      ],
      "min": [
        -0.9999160766601563,
        -0.7783439755439758,
        -0.9999995231628418
      ],
      "type": "VEC3"
    },
    {
      "bufferView": 3,
      "componentType": 5126,
      "count": 65532,
      "max": [
        0.9999995827674866,
        0.9408832788467407,
        0.9999608993530273,
        1.0
      ],
      "min": [
        -0.9999693632125854,
        -0.8669025897979736,
        -0.9999836087226868,
        1.0
      ],
      "type": "VEC4"
    },
    {
      "bufferView": 1,
      "componentType": 5126,
      "count": 65532,
      "max": [
        0.9783695340156555,
        0.8821554183959961
      ],
      "min": [
        0.03902892768383026,
        0.016361359506845474
      ],
      "type": "VEC2"
    },
    {
      "bufferView": 1,
      "byteOffset": 524256,
      "componentType": 5126,
      "count": 65532,
      "max": [
        0.9783695340156555,
        0.8821554183959961
      ],
      "min": [
        0.03902892768383026,
        0.016361359506845474
      ],
      "type": "VEC2"
    },
    {
      "bufferView": 1,
      "byteOffset": 1048512,
      "componentType": 5126,
      "count": 65532,
      "max": [
        0.9783695340156555,
        0.8821554183959961
      ],
      "min": [
        0.03902892768383026,
        0.016361359506845474
      ],
      "type": "VEC2"
    },
    {
      "bufferView": 1,
      "byteOffset": 1572768,
      "componentType": 5126,
      "count": 65532,
      "max": [
        0.9783695340156555,
        0.8821554183959961
      ],
      "min": [
        0.03902892768383026,
        0.016361359506845474
      ],
      "type": "VEC2"
    },
    {
      "bufferView": 0,
      "componentType": 5125,
      "count": 374538,
      "type": "SCALAR"
    },
    {
      "bufferView": 2,
      "byteOffset": 1572768,
      "componentType": 5126,
      "count": 65532,
      "max": [
        0.10177251696586609,
        0.5167449116706848,
        0.0707341656088829
      ],
      "min": [
        -0.16240699589252472,
        0.0002191264502471313,
        -0.017185641452670097
      ],
      "type": "VEC3"
    },
    {
      "bufferView": 2,
      "byteOffset": 2359152,
      "componentType": 5126,
      "count": 65532,
      "max": [
        0.999999463558197,
        0.9998064637184143,
        0.9999920725822449
      ],
      "min": [
        -0.9999692440032959,
        -0.5052315592765808,
        -0.9999987483024597
      ],
      "type": "VEC3"
    },
    {
      "bufferView": 3,
      "byteOffset": 1048512,
      "componentType": 5126,
      "count": 65532,
      "max": [
        0.9999132752418518,
        0.9606194496154785,
        0.9996159076690674,
        1.0
      ],
      "min": [
        -0.9999999403953552,
        -0.8669025897979736,
        -0.999998927116394,
        1.0
      ],
      "type": "VEC4"
    },
    {
      "bufferView": 1,
      "byteOffset": 2097024,
      "componentType": 5126,
      "count": 65532,
      "max": [
        0.981300950050354,
        0.9575453996658325
      ],
      "min": [
        0.006228859070688486,
        0.04926406964659691
      ],
      "type": "VEC2"
    },
    {
      "bufferView": 1,
      "byteOffset": 2621280,
      "componentType": 5126,
      "count": 65532,
      "max": [
        0.981300950050354,
        0.9575453996658325
      ],
      "min": [
        0.006228859070688486,
        0.04926406964659691
      ],
      "type": "VEC2"
    },
    {
      "bufferView": 1,
      "byteOffset": 3145536,
      "componentType": 5126,
      "count": 65532,
      "max": [
        0.981300950050354,
        0.9575453996658325
      ],
      "min": [
        0.006228859070688486,
        0.04926406964659691
      ],
      "type": "VEC2"
    },
    {
      "bufferView": 1,
      "byteOffset": 3669792,
      "componentType": 5126,
      "count": 65532,
      "max": [
        0.981300950050354,
        0.9575453996658325
      ],
      "min": [
        0.006228859070688486,
        0.04926406964659691
      ],
      "type": "VEC2"
    },
    {
      "bufferView": 0,
      "byteOffset": 1498152,
      "componentType": 5125,
      "count": 369819,
      "type": "SCALAR"
    },
    {
      "bufferView": 2,
      "byteOffset": 3145536,
      "componentType": 5126,
      "count": 65532,
      "max": [
        0.10059276968240738,
        0.519599199295044,
        0.09365887939929962
      ],
      "min": [
        -0.1727275550365448,
        -0.0001357726432615891,
        -0.018501775339245796
      ],
      "type": "VEC3"
    },
    {
      "bufferView": 2,
      "byteOffset": 3931920,
      "componentType": 5126,
      "count": 65532,
      "max": [
        0.999992847442627,
        0.9999530911445618,
        0.9999988079071045
      ],
      "min": [
        -0.9999953508377075,
        -0.5933848023414612,
        -0.9999995231628418
      ],
      "type": "VEC3"
    },
    {
      "bufferView": 3,
      "byteOffset": 2097024,
      "componentType": 5126,
      "count": 65532,
      "max": [
        0.9999979138374329,
        0.893695592880249,
        0.999975323677063,
        1.0
      ],
      "min": [
        -0.9999960064888,
        -0.6666731238365173,
        -0.9999942779541016,
        1.0
      ],
      "type": "VEC4"
    },
    {
      "bufferView": 1,
      "byteOffset": 4194048,
      "componentType": 5126,
      "count": 65532,
      "max": [
        0.9959105849266052,
        0.9829546213150024
      ],
      "min": [
        0.011650449596345425,
        0.0163612999022007
      ],
      "type": "VEC2"
    },
    {
      "bufferView": 1,
      "byteOffset": 4718304,
      "componentType": 5126,
      "count": 65532,
      "max": [
        0.9959105849266052,
        0.9829546213150024
      ],
      "min": [
        0.011650449596345425,
        0.0163612999022007
      ],
      "type": "VEC2"
    },
    {
      "bufferView": 1,
      "byteOffset": 5242560,
      "componentType": 5126,
      "count": 65532,
      "max": [
        0.9959105849266052,
        0.9829546213150024
      ],
      "min": [
        0.011650449596345425,
        0.0163612999022007
      ],
      "type": "VEC2"
    },
    {
      "bufferView": 1,
      "byteOffset": 5766816,
      "componentType": 5126,
      "count": 65532,
      "max": [
        0.9959105849266052,
        0.9829546213150024
      ],
      "min": [
        0.011650449596345425,
        0.0163612999022007
      ],
      "type": "VEC2"
    },
    {
      "bufferView": 0,
      "byteOffset": 2977428,
      "componentType": 5125,
      "count": 363690,
      "type": "SCALAR"
    },
    {
      "bufferView": 2,
      "byteOffset": 4718304,
      "componentType": 5126,
      "count": 652,
      "max": [
        0.06710927188396454,
        0.4878712296485901,
        0.04413176327943802
      ],
      "min": [
        0.0062477379105985165,
        0.3167822062969208,
        0.005513009615242481
      ],
      "type": "VEC3"
    },
    {
      "bufferView": 2,
      "byteOffset": 4726128,
      "componentType": 5126,
      "count": 652,
      "max": [
        0.9982739090919495,
        0.99715256690979,
        0.6356447339057922
      ],
      "min": [
        -0.9807338118553162,
        -0.07950995117425919,
        -0.9379216432571411
      ],
      "type": "VEC3"
    },
    {
      "bufferView": 3,
      "byteOffset": 3145536,
      "componentType": 5126,
      "count": 652,
      "max": [
        0.8573362827301025,
        0.58977210521698,
        0.9729757308959961,
        1.0
      ],
      "min": [
        -0.9993933439254761,
        -0.5865704417228699,
        -0.9947842955589294,
        1.0
      ],
      "type": "VEC4"
    },
    {
      "bufferView": 1,
      "byteOffset": 6291072,
      "componentType": 5126,
      "count": 652,
      "max": [
        0.8365452289581299,
        0.9571455717086792
      ],
      "min": [
        0.2436060756444931,
        0.5082465410232544
      ],
      "type": "VEC2"
    },
    {
      "bufferView": 1,
      "byteOffset": 6296288,
      "componentType": 5126,
      "count": 652,
      "max": [
        0.8365452289581299,
        0.9571455717086792
      ],
      "min": [
        0.2436060756444931,
        0.5082465410232544
      ],
      "type": "VEC2"
    },
    {
      "bufferView": 1,
      "byteOffset": 6301504,
      "componentType": 5126,
      "count": 652,
      "max": [
        0.8365452289581299,
        0.9571455717086792
      ],
      "min": [
        0.2436060756444931,
        0.5082465410232544
      ],
      "type": "VEC2"
    },
    {
      "bufferView": 1,
      "byteOffset": 6306720,
      "componentType": 5126,
      "count": 652,
      "max": [
        0.8365452289581299,
        0.9571455717086792
      ],
      "min": [
        0.2436060756444931,
        0.5082465410232544
      ],
      "type": "VEC2"
    },
    {
      "bufferView": 0,
      "byteOffset": 4432188,
      "componentType": 5125,
      "count": 2481,
      "type": "SCALAR"
    }
  ],
  "asset": {
    "extras": {
      "author": "Rijo (https://sketchfab.com/Rijo_)",
      "license": "CC-BY-4.0 (http://creativecommons.org/licenses/by/4.0/)",
      "source": "https://sketchfab.com/3d-models/hand-a19441176a4d49f996650418d988b50c",
      "title": "HAND"
    },
    "generator": "Sketchfab-15.61.0",
    "version": "2.0"
  },
  "bufferViews": [
    {
      "buffer": 0,
      "byteLength": 4442112,
      "name": "floatBufferViews",
      "target": 34963
    },
    {
      "buffer": 0,
      "byteLength": 6311936,
      "byteOffset": 4442112,
      "byteStride": 8,
      "name": "floatBufferViews",
      "target": 34962
    },
    {
      "buffer": 0,
      "byteLength": 4733952,
      "byteOffset": 10754048,
      "byteStride": 12,
      "name": "floatBufferViews",
      "target": 34962
    },
    {
      "buffer": 0,
      "byteLength": 3155968,
      "byteOffset": 15488000,
      "byteStride": 16,
      "name": "floatBufferViews",
      "target": 34962
    }
  ],
  "buffers": [
    {
      "byteLength": 18643968,
      "uri": "scene.bin"
    }
  ],
  "extensionsUsed": [
    "KHR_materials_specular"
  ],
  "images": [
    {
      "uri": "textures/material_baseColor.png"
    },
    {
      "uri": "textures/material_metallicRoughness.png"
    },
    {
      "uri": "textures/material_normal.png"
    }
  ],
  "materials": [
    {
      "doubleSided": true,
      "extensions": {
        "KHR_materials_specular": {
          "specularColorFactor": [
            1.0,
            1.0,
            1.0
          ],
          "specularFactor": 0.303346817124929
        }
      },
      "name": "material",
      "normalTexture": {
        "index": 2,
        "texCoord": 2
      },
      "pbrMetallicRoughness": {
        "baseColorTexture": {
          "index": 0
        },
        "metallicFactor": 0.0,
        "metallicRoughnessTexture": {
          "index": 1,
          "texCoord": 1
        }
      }
    }
  ],
  "meshes": [
    {
      "name": "Object_0",
      "primitives": [
        {
          "attributes": {
            "NORMAL": 1,
            "POSITION": 0,
            "TANGENT": 2,
            "TEXCOORD_0": 3,
            "TEXCOORD_1": 4,
            "TEXCOORD_2": 5,
            "TEXCOORD_3": 6
          },
          "indices": 7,
          "material": 0,
          "mode": 4
        }
      ]
    },
    {
      "name": "Object_1",
      "primitives": [
        {
          "attributes": {
            "NORMAL": 9,
            "POSITION": 8,
            "TANGENT": 10,
            "TEXCOORD_0": 11,
            "TEXCOORD_1": 12,
            "TEXCOORD_2": 13,
            "TEXCOORD_3": 14
          },
          "indices": 15,
          "material": 0,
          "mode": 4
        }
      ]
    },
    {
      "name": "Object_2",
      "primitives": [
        {
          "attributes": {
            "NORMAL": 17,
            "POSITION": 16,
            "TANGENT": 18,
            "TEXCOORD_0": 19,
            "TEXCOORD_1": 20,
            "TEXCOORD_2": 21,
            "TEXCOORD_3": 22
          },
          "indices": 23,
          "material": 0,
          "mode": 4
        }
      ]
    },
    {
      "name": "Object_3",
      "primitives": [
        {
          "attributes": {
            "NORMAL": 25,
            "POSITION": 24,
            "TANGENT": 26,
            "TEXCOORD_0": 27,
            "TEXCOORD_1": 28,
            "TEXCOORD_2": 29,
            "TEXCOORD_3": 30
          },
          "indices": 31,
          "material": 0,
          "mode": 4
        }
      ]
    }
  ],
  "nodes": [
    {
      "children": [
        1
      ],
      "matrix": [
        1.0,
        0.0,
        0.0,
        0.0,
        0.0,
        2.220446049250313e-16,
        -1.0,
        0.0,
        0.0,
        1.0,
        2.220446049250313e-16,
        0.0,
        0.0,
        0.0,
        0.0,
        1.0
      ],
      "name": "Sketchfab_model"
    },
    {
      "children": [
        2
      ],
      "name": "root"
    },
    {
      "children": [
        3
      ],
      "matrix": [
        1.0,
        0.0,
        0.0,
        0.0,
        0.0,
        2.220446049250313e-16,
        1.0,
        0.0,
        0.0,
        -1.0,
        2.220446049250313e-16,
        0.0,
        0.0,
        0.0,
        0.0,
        1.0
      ],
      "name": "GLTF_SceneRootNode"
    },
    {
      "children": [
        4,
        5,
        6,
        7
      ],
      "name": "Hand_0"
    },
    {
      "mesh": 0,
      "name": "Object_4"
    },
    {
      "mesh": 1,
      "name": "Object_5"
    },
    {
      "mesh": 2,
      "name": "Object_6"
    },
    {
      "mesh": 3,
      "name": "Object_7"
    }
  ],
  "samplers": [
    {
      "magFilter": 9729,
      "minFilter": 9987,
      "wrapS": 10497,
      "wrapT": 10497
    }
  ],
  "scene": 0,
  "scenes": [
    {
      "name": "Sketchfab_Scene",
      "nodes": [
        0
      ]
    }
  ],
  "textures": [
    {
      "sampler": 0,
      "source": 0
    },
    {
      "sampler": 0,
      "source": 1
    },
    {
      "sampler": 0,
      "source": 2
    }
  ]
}
